<?xml version="1.0" standalone="no"?>
<!DOCTYPE svg PUBLIC "-//W3C//DTD SVG 20010904//EN"
 "http://www.w3.org/TR/2001/REC-SVG-20010904/DTD/svg10.dtd">
<svg version="1.0" xmlns="http://www.w3.org/2000/svg"
 width="400.000000pt" height="400.000000pt" viewBox="0 0 400.000000 400.000000"
 preserveAspectRatio="xMidYMid meet">
<metadata>
Created by potrace 1.14, written by Peter Selinger 2001-2017
</metadata>
<g transform="translate(0.000000,400.000000) scale(0.100000,-0.100000)"
fill="#000000" stroke="none">
<path d="M0 2000 l0 -2000 2000 0 2000 0 0 2000 0 2000 -2000 0 -2000 0 0
-2000z m2083 1290 c30 -24 64 -25 177 -5 112 20 349 19 464 -1 244 -42 498
-163 646 -307 148 -143 222 -259 282 -441 54 -165 70 -270 77 -521 7 -253 2
-233 87 -358 69 -102 87 -151 81 -219 -14 -151 -47 -221 -164 -340 -80 -83
-175 -144 -253 -164 -62 -16 -177 -15 -275 1 -58 10 -533 13 -750 4 -197 -7
-469 -22 -657 -35 -36 -2 -78 -10 -91 -17 -23 -12 -24 -14 -8 -24 9 -6 66 -12
126 -13 143 -3 258 -7 268 -8 21 -5 2 -21 -30 -26 -33 -5 -302 -10 -343 -6 -8
1 -42 -3 -75 -8 -63 -10 -91 -7 -235 27 -127 30 -205 61 -304 124 -50 31 -95
57 -101 57 -7 0 -47 -9 -91 -21 -43 -11 -113 -27 -154 -35 -41 -7 -75 -14 -75
-14 -1 0 -1 9 -2 21 -1 13 5 23 17 26 24 6 16 23 -11 23 -11 0 -22 7 -26 16
-3 8 -12 13 -20 10 -8 -3 -11 -2 -8 4 7 11 -25 29 -42 23 -7 -3 -28 5 -47 16
-38 24 -66 27 -66 9 0 -10 -2 -10 -8 -1 -5 7 -20 14 -35 15 -15 1 -27 6 -27
10 0 4 -4 8 -10 8 -5 0 -10 -10 -10 -22 -1 -22 -1 -23 -15 -4 -10 13 -12 23
-5 30 13 13 -7 36 -31 36 -29 0 -23 14 12 27 27 11 30 15 19 28 -8 10 -9 15
-1 15 6 0 11 9 11 20 0 10 9 24 20 30 11 6 20 20 20 31 0 12 8 23 18 26 10 2
26 17 37 32 10 16 39 43 64 60 25 17 66 47 91 67 25 19 68 52 96 73 31 23 53
49 56 63 7 38 -46 202 -98 305 -29 56 -44 98 -40 108 3 9 3 22 -1 28 -12 20
-14 49 -4 61 19 22 69 166 76 216 4 27 11 50 16 50 5 0 9 18 9 40 0 22 -5 40
-10 40 -7 0 -7 6 0 20 8 14 8 26 0 40 -9 16 -8 20 4 20 20 0 26 30 22 110 -1
36 1 72 5 80 3 8 9 35 13 59 3 24 13 52 21 61 8 9 15 23 15 31 0 8 12 38 26
67 14 29 27 58 28 64 3 14 11 34 30 81 6 15 17 27 23 27 7 0 14 5 14 10 1 6 2
14 3 19 0 5 21 25 46 45 53 42 109 54 176 37 97 -25 137 -86 138 -214 0 -76
-12 -206 -21 -221 -3 -4 0 -12 6 -15 9 -6 6 -23 -10 -65 -11 -32 -19 -60 -16
-63 3 -3 41 33 84 78 102 110 200 207 241 242 52 44 190 131 272 172 55 27 84
49 108 82 48 64 83 76 125 43z"/>
<path d="M1655 1808 c-95 -74 -59 -257 51 -258 60 0 114 65 114 140 0 62 -23
108 -64 125 -48 20 -68 19 -101 -7z"/>
<path d="M1954 1485 c-9 -23 3 -33 89 -74 84 -40 158 -55 257 -55 72 1 308 22
319 28 5 3 46 10 92 16 46 6 109 15 139 20 181 32 694 48 793 26 24 -6 37 -5
37 2 0 10 -24 15 -175 32 -91 10 -319 2 -530 -20 -99 -10 -128 -14 -315 -45
-60 -10 -171 -16 -305 -18 l-210 -2 -55 28 c-30 16 -69 39 -87 53 -37 28 -42
29 -49 9z"/>
</g>
</svg>
